<?xml version="1.0" encoding="UTF-8"?>
<!DOCTYPE svg PUBLIC "-//W3C//DTD SVG 1.1//EN" "http://www.w3.org/Graphics/SVG/1.1/DTD/svg11.dtd">
<svg version="1.2" width="100mm" height="100mm" viewBox="0 0 10000 10000" preserveAspectRatio="xMidYMid" fill-rule="evenodd" clip-path="url(#presentation_clip_path)" stroke-width="28.222" stroke-linejoin="round" xmlns="http://www.w3.org/2000/svg" xmlns:ooo="http://xml.openoffice.org/svg/export" xmlns:xlink="http://www.w3.org/1999/xlink" xml:space="preserve">
 <defs class="ClipPathGroup">
  <clipPath id="presentation_clip_path" clipPathUnits="userSpaceOnUse">
   <rect x="0" y="0" width="10000" height="10000"/>
  </clipPath>
 </defs>
 <defs class="TextShapeIndex">
  <g ooo:slide="id1" ooo:id-list="id3 id4 id5 id6 id7 id8 id9 id10 id11 id12 id13 id14 id15 id16 id17"/>
 </defs>
 <defs class="EmbeddedBulletChars">
  <g id="bullet-char-template(57356)" transform="scale(0.00048828125,-0.00048828125)">
   <path d="M 580,1141 L 1163,571 580,0 -4,571 580,1141 Z"/>
  </g>
  <g id="bullet-char-template(57354)" transform="scale(0.00048828125,-0.00048828125)">
   <path d="M 8,1128 L 1137,1128 1137,0 8,0 8,1128 Z"/>
  </g>
  <g id="bullet-char-template(10146)" transform="scale(0.00048828125,-0.00048828125)">
   <path d="M 174,0 L 602,739 174,1481 1456,739 174,0 Z M 1358,739 L 309,1346 659,739 1358,739 Z"/>
  </g>
  <g id="bullet-char-template(10132)" transform="scale(0.00048828125,-0.00048828125)">
   <path d="M 2015,739 L 1276,0 717,0 1260,543 174,543 174,936 1260,936 717,1481 1274,1481 2015,739 Z"/>
  </g>
  <g id="bullet-char-template(10007)" transform="scale(0.00048828125,-0.00048828125)">
   <path d="M 0,-2 C -7,14 -16,27 -25,37 L 356,567 C 262,823 215,952 215,954 215,979 228,992 255,992 264,992 276,990 289,987 310,991 331,999 354,1012 L 381,999 492,748 772,1049 836,1024 860,1049 C 881,1039 901,1025 922,1006 886,937 835,863 770,784 769,783 710,716 594,584 L 774,223 C 774,196 753,168 711,139 L 727,119 C 717,90 699,76 672,76 641,76 570,178 457,381 L 164,-76 C 142,-110 111,-127 72,-127 30,-127 9,-110 8,-76 1,-67 -2,-52 -2,-32 -2,-23 -1,-13 0,-2 Z"/>
  </g>
  <g id="bullet-char-template(10004)" transform="scale(0.00048828125,-0.00048828125)">
   <path d="M 285,-33 C 182,-33 111,30 74,156 52,228 41,333 41,471 41,549 55,616 82,672 116,743 169,778 240,778 293,778 328,747 346,684 L 369,508 C 377,444 397,411 428,410 L 1163,1116 C 1174,1127 1196,1133 1229,1133 1271,1133 1292,1118 1292,1087 L 1292,965 C 1292,929 1282,901 1262,881 L 442,47 C 390,-6 338,-33 285,-33 Z"/>
  </g>
  <g id="bullet-char-template(9679)" transform="scale(0.00048828125,-0.00048828125)">
   <path d="M 813,0 C 632,0 489,54 383,161 276,268 223,411 223,592 223,773 276,916 383,1023 489,1130 632,1184 813,1184 992,1184 1136,1130 1245,1023 1353,916 1407,772 1407,592 1407,412 1353,268 1245,161 1136,54 992,0 813,0 Z"/>
  </g>
  <g id="bullet-char-template(8226)" transform="scale(0.00048828125,-0.00048828125)">
   <path d="M 346,457 C 273,457 209,483 155,535 101,586 74,649 74,723 74,796 101,859 155,911 209,963 273,989 346,989 419,989 480,963 531,910 582,859 608,796 608,723 608,648 583,586 532,535 482,483 420,457 346,457 Z"/>
  </g>
  <g id="bullet-char-template(8211)" transform="scale(0.00048828125,-0.00048828125)">
   <path d="M -4,459 L 1135,459 1135,606 -4,606 -4,459 Z"/>
  </g>
 </defs>
 <defs class="TextEmbeddedBitmaps"/>
 <g>
  <g id="id2" class="Master_Slide">
   <g id="bg-id2" class="Background"/>
   <g id="bo-id2" class="BackgroundObjects"/>
  </g>
 </g>
 <g class="SlideGroup">
  <g>
   <g id="id1" class="Slide" clip-path="url(#presentation_clip_path)">
    <g class="Page">
     <g class="Group">
      <g class="com.sun.star.drawing.CustomShape">
       <g id="id3">
        <path fill="rgb(153,153,255)" stroke="none" d="M 5023,6499 C 7454,6499 9312,7067 9312,7811 9312,8555 7454,9124 5023,9124 2592,9124 735,8555 735,7811 735,7067 2592,6499 5023,6499 Z M 735,6499 L 735,6499 Z M 9313,9125 L 9313,9125 Z"/>
       </g>
      </g>
      <g class="com.sun.star.drawing.ClosedBezierShape">
       <g id="id4">
        <path fill="rgb(153,102,51)" stroke="none" d="M 6766,6218 L 7076,6237 7077,2103 C 7077,1867 6766,1830 6766,2104 L 6766,6218 Z"/>
       </g>
      </g>
      <g class="com.sun.star.drawing.ClosedBezierShape">
       <g id="id5">
        <path fill="rgb(255,255,255)" stroke="none" d="M 8603,5117 L 5652,5118 C 4914,4686 4915,2530 5652,2099 L 8602,2098 C 7865,2529 7865,4686 8603,5117 Z"/>
        <path fill="none" stroke="rgb(0,0,0)" d="M 8603,5117 L 5652,5118 C 4914,4686 4915,2530 5652,2099 L 8602,2098 C 7865,2529 7865,4686 8603,5117 Z"/>
       </g>
      </g>
      <g class="com.sun.star.drawing.ClosedBezierShape">
       <g id="id6">
        <path fill="rgb(255,0,0)" stroke="none" d="M 6737,2495 C 6230,2927 6230,4233 6737,4658 L 7109,4658 C 6501,4233 6501,2927 7108,2495 L 6737,2495 Z"/>
       </g>
      </g>
      <g class="com.sun.star.drawing.ClosedBezierShape">
       <g id="id7">
        <path fill="rgb(255,0,0)" stroke="none" d="M 5835,3354 L 7312,3354 C 7254,3455 7246,3538 7311,3641 L 5835,3642 C 5773,3538 5765,3445 5835,3354 Z"/>
       </g>
      </g>
      <g class="com.sun.star.drawing.ClosedBezierShape">
       <g id="id8">
        <path fill="rgb(153,102,51)" stroke="none" d="M 4678,6748 L 5099,6775 5099,779 C 5099,434 4678,381 4678,778 L 4678,6748 Z"/>
       </g>
      </g>
      <g class="com.sun.star.drawing.ClosedBezierShape">
       <g id="id9">
        <path fill="rgb(255,255,255)" stroke="none" d="M 7168,4952 L 3168,4952 C 2168,4452 2168,1952 3169,1452 L 7168,1452 C 6168,1952 6168,4452 7168,4952 Z"/>
        <path fill="none" stroke="rgb(0,0,0)" d="M 7168,4952 L 3168,4952 C 2168,4452 2168,1952 3169,1452 L 7168,1452 C 6168,1952 6168,4452 7168,4952 Z"/>
       </g>
      </g>
      <g class="com.sun.star.drawing.ClosedBezierShape">
       <g id="id10">
        <path fill="rgb(255,0,0)" stroke="none" d="M 4638,1912 C 3951,2412 3951,3927 4638,4420 L 5142,4420 C 4319,3927 4319,2412 5142,1912 L 4638,1912 Z"/>
       </g>
      </g>
      <g class="com.sun.star.drawing.ClosedBezierShape">
       <g id="id11">
        <path fill="rgb(255,0,0)" stroke="none" d="M 3416,2908 L 5418,2908 C 5340,3025 5328,3121 5418,3241 L 3416,3241 C 3332,3120 3320,3013 3416,2908 Z"/>
       </g>
      </g>
      <g class="com.sun.star.drawing.ClosedBezierShape">
       <g id="id12">
        <path fill="rgb(153,102,51)" stroke="none" d="M 2872,6588 L 3143,6605 3143,2818 C 3143,2601 2872,2568 2871,2819 L 2872,6588 Z"/>
       </g>
      </g>
      <g class="com.sun.star.drawing.ClosedBezierShape">
       <g id="id13">
        <path fill="rgb(255,255,255)" stroke="none" d="M 4473,5579 L 1900,5579 C 1257,5184 1257,3209 1901,2813 L 4473,2814 C 3830,3209 3830,5185 4473,5579 Z"/>
        <path fill="none" stroke="rgb(0,0,0)" d="M 4473,5579 L 1900,5579 C 1257,5184 1257,3209 1901,2813 L 4473,2814 C 3830,3209 3830,5185 4473,5579 Z"/>
       </g>
      </g>
      <g class="com.sun.star.drawing.ClosedBezierShape">
       <g id="id14">
        <path fill="rgb(255,0,0)" stroke="none" d="M 2846,3177 C 2404,3573 2404,4769 2846,5158 L 3170,5159 C 2640,4769 2641,3572 3170,3177 L 2846,3177 Z"/>
       </g>
      </g>
      <g class="com.sun.star.drawing.ClosedBezierShape">
       <g id="id15">
        <path fill="rgb(255,0,0)" stroke="none" d="M 2060,3964 L 3348,3964 C 3297,4057 3290,4133 3348,4228 L 2060,4228 C 2006,4132 1998,4047 2060,3964 Z"/>
       </g>
      </g>
      <g class="com.sun.star.drawing.ClosedBezierShape">
       <g id="id16">
        <path fill="rgb(102,25,0)" stroke="none" d="M 551,4962 L 1546,5064 C 3750,6975 6765,6101 7527,5676 L 7578,5179 9499,5375 9448,5873 8475,6276 8425,6773 C 6868,8996 1272,8261 1495,5562 L 501,5460 551,4962 Z"/>
       </g>
      </g>
      <g class="com.sun.star.drawing.ClosedBezierShape">
       <g id="id17">
        <path fill="rgb(153,153,255)" stroke="none" d="M 2422,7323 C 3092,7695 3950,7472 4323,7323 4938,7528 5572,7509 6000,7323 6354,7602 7304,7546 7788,7360 L 7000,8180 3093,8254 2422,7323 Z"/>
       </g>
      </g>
     </g>
    </g>
   </g>
  </g>
 </g>
</svg>