<?xml version="1.0" encoding="UTF-8" standalone="no"?>
<!-- Created with Inkscape (http://www.inkscape.org/) -->

<svg
   xmlns:dc="http://purl.org/dc/elements/1.1/"
   xmlns:cc="http://creativecommons.org/ns#"
   xmlns:rdf="http://www.w3.org/1999/02/22-rdf-syntax-ns#"
   xmlns:svg="http://www.w3.org/2000/svg"
   xmlns="http://www.w3.org/2000/svg"
   xmlns:sodipodi="http://sodipodi.sourceforge.net/DTD/sodipodi-0.dtd"
   xmlns:inkscape="http://www.inkscape.org/namespaces/inkscape"
   width="210mm"
   height="297mm"
   viewBox="0 0 744.09448819 1052.3622047"
   id="svg2"
   version="1.1"
   inkscape:version="0.91 r13725"
   sodipodi:docname="newblueowl.svg">
  <defs
     id="defs4" />
  <sodipodi:namedview
     id="base"
     pagecolor="#ffffff"
     bordercolor="#666666"
     borderopacity="1.0"
     inkscape:pageopacity="0.0"
     inkscape:pageshadow="2"
     inkscape:zoom="0.7"
     inkscape:cx="34.222149"
     inkscape:cy="631.49694"
     inkscape:document-units="px"
     inkscape:current-layer="layer1"
     showgrid="false"
     showguides="true"
     inkscape:guide-bbox="true"
     inkscape:window-width="1920"
     inkscape:window-height="1027"
     inkscape:window-x="-4"
     inkscape:window-y="24"
     inkscape:window-maximized="1">
    <sodipodi:guide
       position="-95.775089,325.64793"
       orientation="0,1"
       id="guide8223" />
    <sodipodi:guide
       position="-81.964287,320.75894"
       orientation="0,1"
       id="guide8225" />
    <sodipodi:guide
       position="-163.75,177.23215"
       orientation="0,1"
       id="guide8439" />
    <sodipodi:guide
       position="-165.71429,164.91072"
       orientation="0,1"
       id="guide8441" />
    <sodipodi:guide
       position="-102.40422,226.77925"
       orientation="1,0"
       id="guide8453" />
    <sodipodi:guide
       position="-176.7767,238.39601"
       orientation="1,0"
       id="guide8455" />
    <sodipodi:guide
       position="-312.13714,391.9392"
       orientation="0,1"
       id="guide8457" />
  </sodipodi:namedview>
  <metadata
     id="metadata7">
    <rdf:RDF>
      <cc:Work
         rdf:about="">
        <dc:format>image/svg+xml</dc:format>
        <dc:type
           rdf:resource="http://purl.org/dc/dcmitype/StillImage" />
        <dc:title></dc:title>
      </cc:Work>
    </rdf:RDF>
  </metadata>
  <g
     inkscape:label="Layer 1"
     inkscape:groupmode="layer"
     id="layer1">
    <circle
       style="opacity:1;fill:#ffffff;fill-opacity:1;fill-rule:nonzero;stroke:#c87137;stroke-width:17.60000038;stroke-linecap:square;stroke-linejoin:miter;stroke-miterlimit:4;stroke-dasharray:none;stroke-dashoffset:0;stroke-opacity:1"
       id="path4146"
       cx="-872.14288"
       cy="700.8291"
       r="197.9899" />
    <path
       style="opacity:1;fill:#c87137;fill-opacity:1;fill-rule:nonzero;stroke:none;stroke-width:14.04996777;stroke-linecap:square;stroke-linejoin:miter;stroke-miterlimit:4;stroke-dasharray:none;stroke-dashoffset:0;stroke-opacity:1"
       d="m -1208.6836,525.83058 c 0,131.95069 -150.4222,281.775 -258.4391,281.775 -108.0169,-1e-5 -249.8676,-149.82432 -249.8676,-281.775 0,-131.95068 141.8507,-238.91785 249.8676,-238.91786 108.0169,0 258.4391,106.96717 258.4391,238.91786 z"
       id="path4141"
       inkscape:connector-curvature="0"
       sodipodi:nodetypes="sssss" />
    <path
       sodipodi:type="star"
       style="opacity:1;fill:#ffffff;fill-opacity:1;fill-rule:nonzero;stroke:#c87137;stroke-width:17.60000038;stroke-linecap:square;stroke-linejoin:miter;stroke-miterlimit:4;stroke-dasharray:none;stroke-dashoffset:0;stroke-opacity:1"
       id="path4144"
       sodipodi:sides="3"
       sodipodi:cx="-871.76166"
       sodipodi:cy="591.2276"
       sodipodi:r1="39.44772"
       sodipodi:r2="19.72386"
       sodipodi:arg1="1.5707963"
       sodipodi:arg2="2.6179939"
       inkscape:flatsided="true"
       inkscape:rounded="0"
       inkscape:randomized="0"
       d="m -871.76166,630.67532 -34.16273,-59.17158 68.32546,0 z"
       inkscape:transform-center-y="13.573287"
       transform="matrix(1.2551152,0,0,1.3763298,222.01841,-229.6315)"
       inkscape:transform-center-x="-4.7737019e-05" />
    <path
       style="opacity:1;fill:#ffffff;fill-opacity:1;fill-rule:nonzero;stroke:#c87137;stroke-width:17.60000038;stroke-linecap:square;stroke-linejoin:miter;stroke-miterlimit:4;stroke-dasharray:none;stroke-dashoffset:0;stroke-opacity:1"
       d="m -992.14287,320.93359 a 147.14285,147.14285 0 0 0 -147.14263,147.14258 147.14285,147.14285 0 0 0 147.14263,147.14258 147.14285,147.14285 0 0 0 120.05273,-62.23047 147.14285,147.14285 0 0 0 119.94727,62.23047 147.14285,147.14285 0 0 0 147.14258,-147.14258 147.14285,147.14285 0 0 0 -147.14258,-147.14258 147.14285,147.14285 0 0 0 -120.05078,62.23243 147.14285,147.14285 0 0 0 -119.94922,-62.23243 z"
       id="path4136"
       inkscape:connector-curvature="0" />
    <circle
       style="opacity:1;fill:#000000;fill-opacity:1;fill-rule:nonzero;stroke:none;stroke-width:17.60000038;stroke-linecap:square;stroke-linejoin:miter;stroke-miterlimit:4;stroke-dasharray:none;stroke-dashoffset:0;stroke-opacity:1"
       id="path4148"
       cx="-982.37335"
       cy="465.96863"
       r="16.667517" />
    <circle
       style="opacity:1;fill:#000000;fill-opacity:1;fill-rule:nonzero;stroke:none;stroke-width:17.60000038;stroke-linecap:square;stroke-linejoin:miter;stroke-miterlimit:4;stroke-dasharray:none;stroke-dashoffset:0;stroke-opacity:1"
       id="path4148-5"
       cx="-762.66516"
       cy="474.55493"
       r="16.667517" />
    <rect
       id="rect4074"
       style="fill:#003380;stroke:none;stroke-width:6.7013998;stroke-linejoin:round"
       height="46.692001"
       width="555.71997"
       y="251.25896"
       x="-1874.2975" />
    <g
       id="g8569">
      <path
         inkscape:connector-curvature="0"
         id="path4196"
         d="M 386.92126,693.06358 A 419.54787,193.96114 0 0 0 30.990689,784.79302 513.60208,237.44334 0 0 1 395.8789,714.17829 513.60208,237.44334 0 0 1 713.43071,765.33349 419.54787,193.96114 0 0 0 386.92126,693.06358 Z"
         style="opacity:1;fill:#552200;fill-opacity:1;fill-rule:nonzero;stroke:none;stroke-width:18.8111763;stroke-linecap:square;stroke-linejoin:miter;stroke-miterlimit:4;stroke-dasharray:none;stroke-dashoffset:0;stroke-opacity:1" />
      <g
         id="g8547">
        <rect
           style="opacity:1;fill:#2a7fff;fill-opacity:1;fill-rule:nonzero;stroke:#ffffff;stroke-width:2.64300632;stroke-linecap:square;stroke-linejoin:miter;stroke-miterlimit:4;stroke-dasharray:none;stroke-dashoffset:0;stroke-opacity:1"
           id="rect8451"
           width="275.88342"
           height="137.94171"
           x="248.93819"
           y="335.2991"
           ry="68.970856"
           rx="63.490215" />
        <path
           id="path4017"
           style="fill:#ffffff;fill-opacity:1;stroke:none;stroke-width:9.27885437;stroke-linejoin:round;stroke-opacity:1"
           d="m 370.07262,403.54949 a 54.373059,49.514771 0 0 1 -108.74612,0 54.373059,49.514771 0 1 1 108.74612,0 z"
           inkscape:connector-curvature="0" />
        <circle
           style="opacity:1;fill:#000000;fill-opacity:1;fill-rule:nonzero;stroke:none;stroke-width:9.04899979;stroke-linecap:square;stroke-linejoin:miter;stroke-miterlimit:4;stroke-dasharray:none;stroke-dashoffset:0;stroke-opacity:1"
           id="path8227"
           cx="315.69955"
           cy="403.75473"
           r="17.132282" />
        <path
           id="path4019"
           style="fill:#f9f9f9;stroke:none;stroke-width:29.32971191;stroke-linejoin:round"
           d="m 319.96477,399.73395 a 4.2652254,6.0206126 0 0 1 -8.53045,0 4.2652254,6.0206126 0 1 1 8.53045,0 z"
           inkscape:connector-curvature="0" />
        <path
           id="path4030"
           style="fill:#ffffff;fill-opacity:1;stroke:none;stroke-width:9.04899979;stroke-linejoin:round;stroke-miterlimit:4;stroke-dasharray:none;stroke-opacity:1"
           d="m 510.85967,403.72667 a 54.779243,49.884656 0 0 1 -109.55849,0 54.779243,49.884656 0 1 1 109.55849,0 z"
           inkscape:connector-curvature="0" />
        <circle
           r="17.132282"
           cy="402.74683"
           cx="456.08038"
           id="circle8229"
           style="opacity:1;fill:#000000;fill-opacity:1;fill-rule:nonzero;stroke:none;stroke-width:9.04899979;stroke-linecap:square;stroke-linejoin:miter;stroke-miterlimit:4;stroke-dasharray:none;stroke-dashoffset:0;stroke-opacity:1" />
        <path
           id="path4032"
           style="fill:#f9f9f9;stroke:none;stroke-width:29.32971191;stroke-linejoin:round"
           d="m 460.34561,399.02135 a 4.2652258,6.020613 0 0 1 -8.53045,0 4.2652258,6.020613 0 1 1 8.53045,0 z"
           inkscape:connector-curvature="0" />
        <path
           id="path4036"
           style="fill:#2a7fff;fill-opacity:1;stroke:none;stroke-width:29.32900047;stroke-linejoin:round"
           d="m 535.54917,524.31972 c 1.39859,54.87037 -67.56993,177.70948 -149.67705,177.70948 -82.10708,0 -147.66142,-122.822 -147.66142,-177.70948 0,-80.08269 67.56992,-62.09681 149.677,-62.09681 82.10712,0 145.64589,-16.97885 147.66147,62.09681 z"
           inkscape:connector-curvature="0"
           sodipodi:nodetypes="sssss" />
        <g
           id="g8543"
           transform="translate(0,-3.214286)">
          <path
             inkscape:connector-curvature="0"
             d="M 381.20742,347.61854 534.75013,306.69591 C 545.58941,360.411 431.8673,358.77916 379.49429,358.77916 Z"
             style="fill:#2a7fff;fill-opacity:1;stroke:none;stroke-width:6.76830006;stroke-linejoin:round"
             id="rect4049" />
          <path
             inkscape:connector-curvature="0"
             d="M 392.65788,347.43525 239.11517,306.50947 c -10.84014,53.71509 102.88283,52.08325 155.25584,52.08325 z"
             style="fill:#2a7fff;stroke:none;stroke-width:6.76830006;stroke-linejoin:round"
             id="path4052" />
        </g>
        <path
           inkscape:connector-curvature="0"
           d="m 503.51479,574.54705 c 0,43.0612 -52.21973,116.96227 -116.63488,116.96227 -64.41515,0 -116.63487,-73.90163 -116.63487,-116.96227 0,-43.0612 52.21972,-77.96985 116.63487,-77.96985 64.41515,0 116.63488,34.9081 116.63488,77.96985 z"
           style="fill:#f9f9f9;fill-opacity:1;stroke:none;stroke-width:29.32900047;stroke-linejoin:round"
           id="path4192"
           sodipodi:nodetypes="sssss" />
        <g
           id="g8443"
           transform="matrix(3.99061,0,0,3.99061,943.69264,-2744.9558)">
          <path
             inkscape:connector-curvature="0"
             d="m -151.71888,862.83754 a 2.6175906,2.3092722 0 0 1 -5.23518,0 2.6175906,2.3092722 0 1 1 5.23518,0 z"
             style="fill:#aa4400"
             id="path4076" />
          <path
             inkscape:connector-curvature="0"
             d="m -146.47638,862.83754 a 2.6175906,2.3092722 0 0 1 -5.23518,0 2.6175906,2.3092722 0 1 1 5.23518,0 z"
             style="fill:#aa4400"
             id="path4078" />
          <path
             inkscape:connector-curvature="0"
             d="m -141.24971,862.83754 a 2.6175906,2.3092722 0 0 1 -5.23518,0 2.6175906,2.3092722 0 1 1 5.23518,0 z"
             style="fill:#aa4400"
             id="path4080" />
          <path
             inkscape:connector-curvature="0"
             d="m -132.76248,862.83754 a 2.6175906,2.3092722 0 0 1 -5.23518,0 2.6175906,2.3092722 0 1 1 5.23518,0 z"
             style="fill:#aa4400"
             id="path4082" />
          <path
             inkscape:connector-curvature="0"
             d="m -127.5279,862.83754 a 2.6175906,2.3092722 0 0 1 -5.23518,0 2.6175906,2.3092722 0 1 1 5.23518,0 z"
             style="fill:#aa4400"
             id="path4084" />
          <path
             inkscape:connector-curvature="0"
             d="m -122.29331,862.83754 a 2.6175906,2.3092722 0 0 1 -5.23518,0 2.6175906,2.3092722 0 1 1 5.23518,0 z"
             style="fill:#aa4400"
             id="path4086" />
        </g>
        <path
           id="path3427"
           style="color:#000000;fill:#241c1c"
           d="m 385.04403,395.65702 c -5.52412,7.45418 -8.80492,16.78239 -15.56429,23.70838 -4.12833,2.94507 -12.62115,-1.52494 -16.23057,2.87284 10.09959,12.29431 21.55867,24.31546 33.26325,34.98903 6.84166,-3.67815 11.64615,-11.32883 17.54978,-16.59531 5.36211,-6.17962 12.14036,-11.70223 16.44846,-18.46715 -3.9084,-3.72659 -11.02881,-0.85451 -16.04425,-2.16614 -8.30597,-2.8232 -10.7588,-13.13585 -15.33691,-19.74762 -1.24168,-1.40721 -1.83732,-4.68876 -4.08555,-4.59403 z"
           inkscape:connector-curvature="0" />
      </g>
    </g>
    <path
       inkscape:connector-curvature="0"
       d="m -580.03109,682.48026 38.476,-10.25473 c 2.71621,13.46037 -25.78123,13.05145 -38.90529,13.05145 z"
       style="fill:none;fill-opacity:1;stroke:#ffffff;stroke-width:0.60000002;stroke-linejoin:round;stroke-miterlimit:4;stroke-dasharray:none;stroke-opacity:1"
       id="path8291" />
  </g>
</svg>
